<?xml version="1.0" encoding="utf-8"?>
<!-- Generator: Adobe Illustrator 24.2.1, SVG Export Plug-In . SVG Version: 6.00 Build 0)  -->
<svg version="1.1" id="Layer_1" xmlns="http://www.w3.org/2000/svg" xmlns:xlink="http://www.w3.org/1999/xlink" x="0px" y="0px"
	 viewBox="0 0 538.7 403.3" style="enable-background:new 0 0 538.7 403.3;" xml:space="preserve">
<style type="text/css">
	.st0{fill:#F29420;}
	.st1{fill:#FFFFFF;}
	.st2{fill:#010101;}
	.st3{font-family:'BebasNeueBold';}
	.st4{font-size:90.2211px;}
	.st5{letter-spacing:4;}
	.st6{font-size:28.8012px;}
	.st7{letter-spacing:5;}
</style>
<g>
	<g>
		<path class="st0" d="M251.8,3L35.4,78.8C14.2,86.3,0,106.3,0,128.8v72.9v72.9c0,22.5,14.2,42.5,35.4,50l216.4,75.9
			c11.3,4,23.7,4,35,0l216.4-75.9c21.2-7.4,35.4-27.5,35.4-50v-72.9v-72.9c0-22.5-14.2-42.5-35.4-50L286.8,3
			C275.5-1,263.2-1,251.8,3z"/>
		<path class="st1" d="M495,102.4L278.6,26.5c-6-2.1-12.6-2.1-18.5,0L43.7,102.4c-11.2,3.9-18.7,14.6-18.7,26.4v20.3v105.2v20.3
			c0,11.9,7.5,22.5,18.7,26.4l216.4,75.9c3,1,6.1,1.6,9.3,1.6c3.2,0,6.3-0.5,9.3-1.6L495,300.9c11.2-3.9,18.7-14.6,18.7-26.4V128.8
			C513.7,116.9,506.2,106.3,495,102.4z M506.6,274.5c0,8.9-5.6,16.8-14,19.7l-216.4,75.9c-4.5,1.6-9.4,1.6-13.8,0L46,294.2
			c-8.4-2.9-14-10.9-14-19.7v-23.4h474.6V274.5z M506.6,152.2H32v-23.4c0-8.9,5.6-16.8,14-19.7l216.4-75.9c2.2-0.8,4.6-1.2,6.9-1.2
			c2.4,0,4.7,0.4,6.9,1.2l216.4,75.9c8.4,2.9,14,10.9,14,19.7V152.2z"/>
	</g>
	<g>
		<text transform="matrix(1 0 0 1 69.9409 231.9171)" class="st2 st3 st4 st5">WINGSORDER</text>
	</g>
	<text transform="matrix(1 0 0 1 141.145 301.9484)" class="st1 st3 st6 st7">SPICY &amp; DELICIOUS</text>
	<text transform="matrix(1 0 0 1 162.2124 119.3937)" class="st1 st3 st6 st7">PREMIUM TASTE</text>
</g>
</svg>

